<svg xmlns="http://www.w3.org/2000/svg" xmlns:xlink="http://www.w3.org/1999/xlink" width="110.041" height="35.234" viewBox="0 0 110.041 35.234"><defs><clipPath id="a"><rect width="110.041" height="35.234" fill="none"/></clipPath></defs><g clip-path="url(#a)"><path d="M0,36.984H5.473c.342,1.672,1.939,2.623,4.029,2.623,2.053,0,3.459-.608,3.459-2.167,0-1.026-.646-1.748-2.167-2.015L5.7,34.513C2.167,33.905.38,32.233.38,29.268c0-4.143,3.953-6.157,8.7-6.157,5.017,0,8.438,2.28,8.7,6.119H12.467c-.3-1.52-1.482-2.281-3.5-2.281-1.786,0-3.155.57-3.155,1.824,0,.874.494,1.482,2.053,1.748l5.093.8c3.649.608,5.473,2.394,5.473,5.473,0,4.6-4.143,6.689-8.97,6.689-4.865,0-8.97-2.2-9.464-6.5" transform="translate(0 -14.977)" fill="#1d1c1d"/><path d="M81.38,33.157c0,5.625-3.231,10.262-8.362,10.262-2.964,0-5.815-1.368-6.8-6.461V50.071H60.4V23.237h4.941l.646,5.778c1.254-4.941,4.143-6.12,7.3-6.12,4.827,0,8.1,4.523,8.1,10.262m-5.815,0c0-3-1.862-5.625-4.675-5.625-2.927,0-4.675,2.432-4.675,5.625S68,38.745,70.89,38.745c2.812,0,4.675-2.623,4.675-5.587" transform="translate(-39.143 -14.837)" fill="#1d1c1d"/><path d="M133.932,28.24h-5.815V12.961h-2.889V8.4h8.7ZM127.889,2.964a3.161,3.161,0,0,1,6.309,0,3.164,3.164,0,0,1-6.309,0" transform="translate(-81.155)" fill="#1d1c1d"/><path d="M175.613,23.867v4.561h-2.319c-3.421,0-5.321,1.862-5.321,5.625v9.654h-5.816V23.867h4.713l.57,6.2c.836-4.561,2.965-6.2,5.739-6.2Z" transform="translate(-105.087 -15.467)" fill="#1d1c1d"/><path d="M216.6,28.24h-5.815V12.961H207.9V8.4h8.7ZM210.559,2.964a3.161,3.161,0,0,1,6.31,0,3.164,3.164,0,0,1-6.31,0" transform="translate(-134.729)" fill="#1d1c1d"/><path d="M250.533,28.24h-5.815V12.961h-2.889V8.4h8.7ZM244.49,2.964a3.161,3.161,0,0,1,6.309,0,3.164,3.164,0,0,1-6.309,0" transform="translate(-156.719)" fill="#3960ff"/><path d="M288.1,28.91V33.7H284c-4.219,0-6.348-2.243-6.348-6.538V18.419H274.76V13.858h2.888V8.423h5.816V9.6a4.074,4.074,0,0,1-4.333,4.257h8.932v4.561h-4.6v7.906a2.288,2.288,0,0,0,2.509,2.584Z" transform="translate(-178.06 -5.459)" fill="#1d1c1d"/></g></svg>